# xmcd CD database file
# 
# Track frame offsets:
# 	150
# 	16565
# 	29075
# 	43687
# 	56955
# 	73183
# 	87608
# 	104176
# 	118112
# 	133937
# 	145832
# 	158060
# 	169881
# 
# Disc length: 2489 seconds
# 
# Submitted via: Nero 6, 6, 0, 1
# 
# Revision: 0
# Processed by: cddbd v1.5.1PL0 Copyright (c) Steve Scherf et al.
#
DISCID=c709b70d
DTITLE=Gurf Morlix - Cut 'N Shoot
DYEAR=1900
DGENRE=
TTITLE0=Yesterday She Didn't
TTITLE1=Were You Lyin' Down
TTITLE2=Ten Years Of Love
TTITLE3=Without You
TTITLE4=The Whole Truth
TTITLE5=Me and You
TTITLE6=I'll Change
TTITLE7=Where There Is Smoke
TTITLE8=A Girl Like You
TTITLE9=Lost Without You
TTITLE10=Grabbin' For Love
TTITLE11=Your Sister
TTITLE12=They're Hangin' Me Tonight
EXTD=
EXTT0=
EXTT1=
EXTT2=
EXTT3=
EXTT4=
EXTT5=
EXTT6=
EXTT7=
EXTT8=
EXTT9=
EXTT10=
EXTT11=
EXTT12=
PLAYORDER=
